<?xml version="1.0"?><svg width="533.3333333333333" height="533.3333333333333" xmlns="http://www.w3.org/2000/svg" xmlns:xlink="http://www.w3.org/1999/xlink">
 <defs>
  <linearGradient id="linearGradient562">
   <stop stop-color="#de9500" offset="0" id="stop563"/>
   <stop stop-color="#ffff0f" offset="1" id="stop564"/>
  </linearGradient>
  <linearGradient id="linearGradient558">
   <stop stop-color="#000" offset="0" id="stop559"/>
   <stop stop-color="#fff" offset="1" id="stop560"/>
  </linearGradient>
  <linearGradient y2="0.320313" y1="0.539066" xlink:href="#linearGradient562" x2="0.25" x1="0.614868" spreadMethod="reflect" id="linearGradient561" gradientUnits="objectBoundingBox"/>
 </defs>
 <g>
  <title>Layer 1</title>
  <g externalResourcesRequired="false" id="g851">
   <path fill="#cca89d" fill-rule="evenodd" stroke="#000000" stroke-width="10" stroke-linejoin="round" id="path554" d="m99.878799,380.675995l-23.864799,101.645996l99.726997,-70.709991c0,0 -8.686996,-60.104004 -75.862198,-30.936005z"/>
   <path fill="#ff0000" fill-rule="evenodd" stroke="#000000" stroke-width="10" stroke-linejoin="round" id="path553" d="m100.763,380.675995l224.506012,-318.198395c0,0 21.212982,-26.516499 45.077972,-11.490501c7.072021,1.767799 5.304016,0.000103 19.446014,10.606602c3.535004,2.651699 5.303009,23.864902 5.303009,23.864902c0,0 -220.971008,326.153397 -220.971008,327.037399c0,0.882996 -3.535995,-19.446014 -22.981003,-30.053009c-17.677994,-10.605988 -49.496994,-0.882996 -50.380997,-1.766998z"/>
   <path fill-rule="evenodd" stroke="#000000" stroke-width="1.0000000pt" id="path555" d="m75.130096,483.205994l7.955002,-31.820007c0,-0.883972 10.606606,-0.883972 14.142105,3.536011c3.535797,0.884003 4.4198,7.955017 4.4198,7.955017l-26.516907,20.328979z"/>
   <path fill="#fc64e3" fill-rule="evenodd" stroke="#000000" stroke-width="10" stroke-linejoin="round" id="path556" d="m315.546997,74.851997l43.309998,-52.149097c0,0 18.561005,-19.44545 37.123016,-9.7227c18.560974,9.7227 9.721985,4.4193 18.561981,10.606501c7.95401,12.3745 -2.651978,35.3554 -3.53598,35.3554c-0.884003,0 -36.239014,58.336899 -36.239014,58.336899c0,0 8.838013,-10.607002 -6.187988,-18.562096c-16.792999,-22.097107 -53.916016,-23.864906 -53.032013,-23.864906z"/>
   <path fill="url(#linearGradient561)" fill-rule="evenodd" stroke="#000000" stroke-width="10" stroke-linejoin="round" id="path557" d="m305.824005,87.226303c-0.884003,0 36.238983,-47.729603 36.238983,-47.729603c0,0 15.026001,-1.767899 28.283997,1.7677c15.027008,6.187199 8.83902,1.767799 19.446014,9.722801c9.722015,7.954899 11.48999,26.516499 11.48999,26.516499l-28.283997,44.194298c0,0 0.884003,-8.838997 -7.954987,-18.560997c-14.141998,-11.491302 -28.285004,-13.259003 -37.123016,-16.794601c-12.375,-1.7677 -22.980988,1.767799 -22.096985,0.883904z"/>
   <path fill="#ffffff" fill-rule="evenodd" stroke-width="1.0000000pt" id="path566" d="m76.875,481.743805c0,-1.25 6.875,-27.5 8.75,-27.5c1.875,0 8.125,1.25 8.125,3.125c-10.625,6.25 -15,22.5 -16.875,24.375z"/>
   <path fill="#ffffff" fill-opacity="0.503704" fill-rule="evenodd" stroke-width="1.0000000pt" id="path564" d="m120.027443,365.521973c17.755104,-28.040985 229.246147,-329.697922 235.513054,-333.852142c87.728394,-36.34935 -173.891953,246.613159 -235.513054,333.852142z"/>
   <path fill="#ffffff" fill-opacity="0.501961" fill-rule="evenodd" stroke-width="1.0000000pt" id="path565" d="m91.540314,448.818604c0,-2.544006 7.937889,-45.245392 13.024483,-59.66037c1.696007,0 31.102211,-12.990814 40.429207,2.273163c-33.068001,5.087006 -51.75779,50.604218 -53.45369,57.387207z"/>
   <path fill-opacity="0.25" fill-rule="evenodd" stroke-width="1.0000000pt" id="path567" d="m394.283997,17.5322c0,0 19.502014,4.2397 19.502014,10.1751c5.086975,16.958399 -4.240021,26.285501 -10.175018,36.4606c1.696014,-16.1105 5.088013,-23.741699 -9.326996,-46.6357z"/>
  </g>
 </g>
</svg>